<svg xmlns="http://www.w3.org/2000/svg" version="1.1" xmlns:xlink="http://www.w3.org/1999/xlink" xmlns:svgjs="http://svgjs.dev/svgjs" width="2000" height="429" viewBox="0 0 2000 429"><g transform="matrix(1,0,0,1,-1.2121212121212466,0.36501220748669994)"><svg viewBox="0 0 396 85" data-background-color="#ffffff" preserveAspectRatio="xMidYMid meet" height="429" width="2000" xmlns="http://www.w3.org/2000/svg" xmlns:xlink="http://www.w3.org/1999/xlink"><g id="tight-bounds" transform="matrix(1,0,0,1,0.2400000000000091,-0.07232176605214136)"><svg viewBox="0 0 395.52 85.14464353210427" height="85.14464353210427" width="395.52"><g><svg viewBox="0 0 539.8052318974738 116.20530958402937" height="85.14464353210427" width="395.52"><g><rect width="6.040117473450963" height="84.50530834439182" x="411.3318258467302" y="15.850000619818772" fill="#ffffff" opacity="1" stroke-width="0" stroke="transparent" fill-opacity="1" class="rect-qz-0" data-fill-palette-color="primary" rx="1%" id="qz-0" data-palette-color="#ffffff"></rect></g><g transform="matrix(1,0,0,1,0,16.060212829630686)"><svg viewBox="0 0 395.52 84.084883924768" height="84.084883924768" width="395.52"><g id="textblocktransform"><svg viewBox="0 0 395.52 84.084883924768" height="84.084883924768" width="395.52" id="textblock"><g><svg viewBox="0 0 395.52 66.97769297484822" height="66.97769297484822" width="395.52"><g transform="matrix(1,0,0,1,0,0)"><svg width="395.52" viewBox="2.55 -38.45 230.57999999999998 39.050000000000004" height="66.97769297484822" data-palette-color="#ffffff"><g class="wordmark-text-0" data-fill-palette-color="primary" id="text-0"><path d="M34-18.25L34-18.25Q34-12.95 31.85-8.83 29.7-4.7 25.73-2.35 21.75 0 16.35 0L16.35 0 3.35 0 3.35-33.55Q3.35-33.6 3.18-34.3 3-35 2.8-35.75 2.6-36.5 2.55-36.6L2.55-36.6 16.4-36.6Q22-36.6 25.93-34.27 29.85-31.95 31.93-27.83 34-23.7 34-18.25ZM26.6-18.05L26.6-18.05Q26.6-20.6 26.03-23.03 25.45-25.45 24.18-27.4 22.9-29.35 20.88-30.5 18.85-31.65 15.95-31.65L15.95-31.65 10.25-31.65 10.25-4.95 16.05-4.95Q19.85-4.95 22.18-6.83 24.5-8.7 25.55-11.7 26.6-14.7 26.6-18.05ZM48.2 0.6L48.2 0.6Q44.45 0.6 41.77-1.13 39.1-2.85 37.67-5.78 36.25-8.7 36.25-12.3L36.25-12.3Q36.25-15.9 37.75-18.9 39.25-21.9 42.02-23.7 44.8-25.5 48.5-25.5L48.5-25.5Q52.3-25.5 54.95-23.78 57.6-22.05 59.02-19.13 60.45-16.2 60.45-12.6L60.45-12.6Q60.45-9 58.95-6 57.45-3 54.72-1.2 52 0.6 48.2 0.6ZM48.25-3.4L48.25-3.4Q50-3.4 51.1-4.28 52.2-5.15 52.8-6.53 53.4-7.9 53.62-9.47 53.85-11.05 53.85-12.4L53.85-12.4Q53.85-13.8 53.67-15.38 53.5-16.95 52.95-18.32 52.4-19.7 51.32-20.55 50.25-21.4 48.45-21.4L48.45-21.4Q46.75-21.4 45.65-20.5 44.55-19.6 43.95-18.2 43.35-16.8 43.1-15.25 42.85-13.7 42.85-12.4L42.85-12.4Q42.85-11.05 43.05-9.5 43.25-7.95 43.8-6.55 44.35-5.15 45.42-4.28 46.5-3.4 48.25-3.4ZM75.9-25.5L75.9-25.5Q77.75-25.5 79.84-24.85 81.95-24.2 83.45-23.1L83.45-23.1 80.45-19.3Q79.25-20.2 78.09-20.73 76.95-21.25 75.34-21.25L75.34-21.25Q73.75-21.25 72.65-20.4 71.55-19.55 70.9-18.2 70.25-16.85 69.95-15.35 69.65-13.85 69.65-12.55L69.65-12.55Q69.65-8.3 71.4-5.95 73.15-3.6 76.25-3.6L76.25-3.6Q77.55-3.6 78.9-4.03 80.25-4.45 81.8-5.35L81.8-5.35 83.34-1.75Q81.25-0.6 79.45 0 77.65 0.6 75.2 0.6L75.2 0.6Q71.25 0.6 68.55-1.07 65.84-2.75 64.45-5.7 63.05-8.65 63.05-12.45L63.05-12.45Q63.05-16.35 64.65-19.28 66.25-22.2 69.12-23.85 72-25.5 75.9-25.5ZM91.19-32.1L95.44-32.1Q95.09-30.35 94.84-28.5 94.59-26.65 94.54-24.85L94.54-24.85 100.59-24.85 99.64-20.9 94.54-20.9 94.54-7.15Q94.54-6.6 94.64-5.8 94.74-5 95.19-4.4 95.64-3.8 96.64-3.8L96.64-3.8Q97.49-3.8 98.29-3.95 99.09-4.1 99.89-4.3L99.89-4.3 100.59-0.55Q99.29-0.15 97.67 0.18 96.04 0.5 94.69 0.5L94.69 0.5Q91.49 0.5 89.97-1 88.44-2.5 88.44-5.8L88.44-5.8 88.44-20.9 84.34-20.9 84.34-24.2Q86.39-24.25 87.77-25.5 89.14-26.75 89.99-28.58 90.84-30.4 91.19-32.1L91.19-32.1ZM113.84 0.6L113.84 0.6Q110.09 0.6 107.42-1.13 104.74-2.85 103.31-5.78 101.89-8.7 101.89-12.3L101.89-12.3Q101.89-15.9 103.39-18.9 104.89-21.9 107.67-23.7 110.44-25.5 114.14-25.5L114.14-25.5Q117.94-25.5 120.59-23.78 123.24-22.05 124.67-19.13 126.09-16.2 126.09-12.6L126.09-12.6Q126.09-9 124.59-6 123.09-3 120.37-1.2 117.64 0.6 113.84 0.6ZM113.89-3.4L113.89-3.4Q115.64-3.4 116.74-4.28 117.84-5.15 118.44-6.53 119.04-7.9 119.27-9.47 119.49-11.05 119.49-12.4L119.49-12.4Q119.49-13.8 119.31-15.38 119.14-16.95 118.59-18.32 118.04-19.7 116.97-20.55 115.89-21.4 114.09-21.4L114.09-21.4Q112.39-21.4 111.29-20.5 110.19-19.6 109.59-18.2 108.99-16.8 108.74-15.25 108.49-13.7 108.49-12.4L108.49-12.4Q108.49-11.05 108.69-9.5 108.89-7.95 109.44-6.55 109.99-5.15 111.06-4.28 112.14-3.4 113.89-3.4ZM129.19-24.85L135.54-25.35Q136.64-22.85 136.74-20.1L136.74-20.1Q137.99-22.2 140.24-23.78 142.49-25.35 144.99-25.35L144.99-25.35 143.99-19.4Q141.79-19.4 140.06-18.28 138.34-17.15 136.79-14.8L136.79-14.8 136.79 0 130.79 0 130.79-18.15Q130.79-19.1 130.64-20.38 130.49-21.65 130.14-22.85 129.79-24.05 129.19-24.85L129.19-24.85ZM147.59-38.45L154.39-38.45 154.39-14.6 162.09-24.85 167.94-24.85 159.89-14.35 169.39 0 162.64 0 154.39-12.75 154.39 0 148.24 0 148.24-35.75 147.59-38.45ZM181.28 0.6L181.28 0.6Q177.53 0.6 174.86-1.13 172.18-2.85 170.76-5.78 169.33-8.7 169.33-12.3L169.33-12.3Q169.33-15.9 170.83-18.9 172.33-21.9 175.11-23.7 177.88-25.5 181.58-25.5L181.58-25.5Q185.38-25.5 188.03-23.78 190.68-22.05 192.11-19.13 193.53-16.2 193.53-12.6L193.53-12.6Q193.53-9 192.03-6 190.53-3 187.81-1.2 185.08 0.6 181.28 0.6ZM181.33-3.4L181.33-3.4Q183.08-3.4 184.18-4.28 185.28-5.15 185.88-6.53 186.48-7.9 186.71-9.47 186.93-11.05 186.93-12.4L186.93-12.4Q186.93-13.8 186.76-15.38 186.58-16.95 186.03-18.32 185.48-19.7 184.41-20.55 183.33-21.4 181.53-21.4L181.53-21.4Q179.83-21.4 178.73-20.5 177.63-19.6 177.03-18.2 176.43-16.8 176.18-15.25 175.93-13.7 175.93-12.4L175.93-12.4Q175.93-11.05 176.13-9.5 176.33-7.95 176.88-6.55 177.43-5.15 178.51-4.28 179.58-3.4 181.33-3.4ZM197.03-24.65L203.33-25.4Q203.68-24.65 203.88-23.83 204.08-23 204.18-22.2L204.18-22.2Q205.93-23.7 207.68-24.6 209.43-25.5 211.83-25.5L211.83-25.5Q213.88-25.5 215.56-24.65 217.23-23.8 218.03-21.85L218.03-21.85Q219.73-23.55 221.73-24.53 223.73-25.5 226.13-25.5L226.13-25.5Q228.88-25.5 230.41-24.38 231.93-23.25 232.53-21.33 233.13-19.4 233.13-16.95L233.13-16.95 233.13 0 227.13 0 227.13-16.6Q227.13-17.85 226.88-18.78 226.63-19.7 225.93-20.25 225.23-20.8 223.83-20.8L223.83-20.8Q222.58-20.8 221.13-19.88 219.68-18.95 218.83-18.1L218.83-18.1 218.83 0 212.78 0 212.78-16.75Q212.78-17.85 212.53-18.75 212.28-19.65 211.61-20.23 210.93-20.8 209.63-20.8L209.63-20.8Q208.78-20.8 207.83-20.38 206.88-19.95 206.03-19.33 205.18-18.7 204.58-18.05L204.58-18.05 204.58 0 198.58 0 198.58-17.8Q198.58-18.7 198.46-20.03 198.33-21.35 197.98-22.65 197.63-23.95 197.03-24.65L197.03-24.65Z" fill="#ffffff" data-fill-palette-color="primary"></path></g></svg></g></svg></g><g transform="matrix(1,0,0,1,388.00512,82.7895188215785)"><svg viewBox="0 0 7.51488 1.2953651031894935" height="1.2953651031894935" width="7.51488"><g transform="matrix(1,0,0,1,0,0)"><svg width="7.51488" viewBox="1.4 -36.15 213.18 36.75" height="1.2953651031894935" data-palette-color="#2d4f8f"><path d="M1.4 0L6.2-34.3 16.75-34.3Q22.55-34.3 25.68-31 28.8-27.7 28.8-21.3L28.8-21.3Q28.8-16.2 27.18-11.33 25.55-6.45 22.05-3.23 18.55 0 13.2 0L13.2 0 1.4 0ZM8.55-5.7L12.65-5.7Q16.2-5.7 18.38-8.08 20.55-10.45 21.45-13.9 22.35-17.35 22.35-20.85L22.35-20.85Q22.35-24.65 20.65-26.63 18.95-28.6 15.85-28.6L15.85-28.6 11.75-28.6 8.55-5.7ZM40.7 0.6Q31.4 0.6 31.4-9L31.4-9Q31.4-16.25 34.12-21.58 36.85-26.9 43.55-26.9L43.55-26.9Q52.85-26.9 52.85-17.15L52.85-17.15Q52.85-9.9 50.12-4.65 47.4 0.6 40.7 0.6L40.7 0.6ZM40.9-4.45Q44.4-4.45 45.55-8.88 46.7-13.3 46.7-17.15L46.7-17.15Q46.7-21.85 43.35-21.85L43.35-21.85Q39.85-21.85 38.7-17.43 37.55-13 37.55-9.15L37.55-9.15Q37.55-6.8 38.35-5.63 39.15-4.45 40.9-4.45L40.9-4.45ZM64.8 0.6Q60.6 0.6 58.52-1.68 56.45-3.95 56.45-8.6L56.45-8.6Q56.45-16.25 59-21.58 61.55-26.9 68.09-26.9L68.09-26.9Q72.34-26.9 74.3-24.53 76.25-22.15 76.25-17.15L76.25-17.15 76.25-16.4 70.15-16.4 70.15-17.15Q70.15-19.55 69.59-20.7 69.05-21.85 67.65-21.85L67.65-21.85Q65.7-21.85 64.57-19.43 63.45-17 63-14.08 62.55-11.15 62.55-9.55L62.55-9.55Q62.55-6.9 63.12-5.68 63.7-4.45 65.25-4.45L65.25-4.45Q66.75-4.45 67.8-5.93 68.84-7.4 69.34-9.75L69.34-9.75 75.3-9.75Q74.25-5 71.82-2.2 69.4 0.6 64.8 0.6L64.8 0.6ZM84.84 0.6Q82.04 0.6 80.79-0.9 79.54-2.4 79.54-4.8L79.54-4.8Q79.54-6 81.79-21.25L81.79-21.25 79.14-21.25 79.84-26.3 82.49-26.3 84.49-33.7 89.49-33.7 88.39-26.3 92.19-26.3 91.49-21.25 87.74-21.25Q85.64-6.55 85.64-6.1L85.64-6.1Q85.64-4.45 87.44-4.45L87.44-4.45 89.09-4.45 88.49 0Q87.84 0.25 86.77 0.43 85.69 0.6 84.84 0.6L84.84 0.6ZM102.19 0.6Q92.89 0.6 92.89-9L92.89-9Q92.89-16.25 95.62-21.58 98.34-26.9 105.04-26.9L105.04-26.9Q114.34-26.9 114.34-17.15L114.34-17.15Q114.34-9.9 111.62-4.65 108.89 0.6 102.19 0.6L102.19 0.6ZM102.39-4.45Q105.89-4.45 107.04-8.88 108.19-13.3 108.19-17.15L108.19-17.15Q108.19-21.85 104.84-21.85L104.84-21.85Q101.34-21.85 100.19-17.43 99.04-13 99.04-9.15L99.04-9.15Q99.04-6.8 99.84-5.63 100.64-4.45 102.39-4.45L102.39-4.45ZM117.29 0L120.94-26.3 125.79-26.3 125.79-22.3Q126.79-24.35 128.06-25.63 129.34-26.9 131.19-26.9L131.19-26.9Q132.64-26.9 133.59-26.5L133.59-26.5 132.84-20.7 130.94-20.7Q128.74-20.7 127.21-19.3 125.69-17.9 125.24-14.65L125.24-14.65 123.19 0 117.29 0ZM133.24 0L138.24-36.15 144.19-36.15 141.44-16.45 149.74-26.3 156.49-26.3 147.28-15.5 153.19 0 146.89 0 143.09-10.75 140.28-8 139.19 0 133.24 0ZM165.98 0.6Q156.68 0.6 156.68-9L156.68-9Q156.68-16.25 159.41-21.58 162.13-26.9 168.83-26.9L168.83-26.9Q178.13-26.9 178.13-17.15L178.13-17.15Q178.13-9.9 175.41-4.65 172.68 0.6 165.98 0.6L165.98 0.6ZM166.18-4.45Q169.68-4.45 170.83-8.88 171.98-13.3 171.98-17.15L171.98-17.15Q171.98-21.85 168.63-21.85L168.63-21.85Q165.13-21.85 163.98-17.43 162.83-13 162.83-9.15L162.83-9.15Q162.83-6.8 163.63-5.63 164.43-4.45 166.18-4.45L166.18-4.45ZM181.13 0L184.83-26.3 189.68-26.3 189.68-22.9Q192.28-26.9 196.28-26.9L196.28-26.9Q198.53-26.9 199.93-25.78 201.33-24.65 201.83-22.6L201.83-22.6Q203.13-24.6 204.78-25.75 206.43-26.9 208.73-26.9L208.73-26.9Q211.58-26.9 213.08-25.13 214.58-23.35 214.58-20.15L214.58-20.15Q214.58-19.45 214.36-17.68 214.13-15.9 213.53-11.7L213.53-11.7Q213.23-9.25 212.81-6.3 212.38-3.35 211.93 0L211.93 0 205.98 0 207.63-11.85Q208.13-15.2 208.31-16.63 208.48-18.05 208.48-18.55L208.48-18.55Q208.48-21.45 206.03-21.45L206.03-21.45Q204.48-21.45 203.23-19.95 201.98-18.45 201.63-15.8L201.63-15.8 199.53 0 193.58 0 195.23-12Q195.68-15.25 195.86-16.65 196.03-18.05 196.03-18.55L196.03-18.55Q196.03-21.45 193.63-21.45L193.63-21.45Q192.03-21.45 190.81-19.98 189.58-18.5 189.23-15.8L189.23-15.8 187.08 0 181.13 0Z" opacity="1" transform="matrix(1,0,0,1,0,0)" fill="#2d4f8f" class="slogan-text-1" data-fill-palette-color="secondary" id="text-1"></path></svg></g></svg></g></svg></g></svg></g><g transform="matrix(1,0,0,1,433.1837691669114,0)"><svg viewBox="0 0 106.62146273056233 116.20530958402937" height="116.20530958402937" width="106.62146273056233"><g><svg xmlns="http://www.w3.org/2000/svg" xmlns:xlink="http://www.w3.org/1999/xlink" version="1.1" x="0" y="0" viewBox="3.5040000000000004 0.126 91.404 99.62" enable-background="new 0 0 100 100" xml:space="preserve" height="116.20530958402937" width="106.62146273056233" class="icon-icon-0" data-fill-palette-color="accent" id="icon-0"><g fill="#ffcc00" data-fill-palette-color="accent"><path d="M49.869 58.594h-1.246c-0.768 0-0.768 1.15 0 1.15h1.246C50.637 59.744 50.637 58.594 49.869 58.594z" fill="#ffcc00" data-fill-palette-color="accent"></path><path d="M57.422 47.176c-0.58 0.164-0.338 1.036 0.246 0.873 0.672-0.189 1.408 0.674 1.477 1.294 0.062 0.601 0.967 0.502 0.9-0.098C59.918 48.078 58.668 46.827 57.422 47.176z" fill="#ffcc00" data-fill-palette-color="accent"></path><path d="M58.335 33.213c-2.142 0-4.103 1.005-4.817 2.583-0.332 0.735 0.77 1.233 1.104 0.498 0.365-0.809 1.352-1.526 2.68-1.777-0.457 0.305-0.758 0.824-0.758 1.415 0 0.938 0.76 1.698 1.697 1.698 0.939 0 1.697-0.76 1.697-1.698 0-0.619-0.33-1.16-0.824-1.457 1.435 0.202 2.482 0.954 2.873 1.819 0.332 0.735 1.434 0.237 1.102-0.498C62.377 34.226 60.49 33.213 58.335 33.213z" fill="#ffcc00" data-fill-palette-color="accent"></path><path d="M22.793 96.787c-0.977-2.686 0.344-5.646 2.959-6.729-0.024-0.209-0.045-0.42-0.061-0.632-0.052-0.666 0.203-1.155 0.598-1.463-0.119-5.483 1.685-11.228 4.996-16.3-3.412 1.134-7.43 2.457-7.43 2.457C12.777 77.902 5.787 80.266 4.24 89.005c-0.015 0.095-0.629 5.892-0.736 10.74v0.001h21.953C24.262 99.164 23.285 98.135 22.793 96.787z" fill="#ffcc00" data-fill-palette-color="accent"></path><circle cx="27.79" cy="94.966" r="2.8" fill="#ffcc00" data-fill-palette-color="accent"></circle><path d="M26.744 35.305c-0.746 0.183-0.471 1.3 0.275 1.117 0.516-0.128 1.467 0.475 2.211 1.84-0.185 0.229-0.24 0.624-0.113 1.067 0.197 0.69 0.76 1.261 1.252 1.222 1.082-0.084 0.39-1.691 0.326-1.846C29.896 36.681 28.338 34.911 26.744 35.305z" fill="#ffcc00" data-fill-palette-color="accent"></path><path d="M68.199 40.551c0.494 0.038 1.055-0.532 1.252-1.222 0.129-0.443 0.074-0.838-0.111-1.067 0.742-1.364 1.695-1.967 2.209-1.84 0.746 0.184 1.021-0.934 0.277-1.117-1.594-0.394-3.154 1.376-3.951 3.4C67.807 38.861 67.119 40.467 68.199 40.551z" fill="#ffcc00" data-fill-palette-color="accent"></path><path d="M53.588 32.7c1.807-0.858 3.92-1.196 6.176-0.798 1.502 0.264 2.863 0.821 4.018 1.582 1.178 0.776 2.342-0.99 1.164-1.766-1.396-0.921-3.029-1.585-4.816-1.9-2.689-0.474-5.248-0.073-7.449 0.97C51.406 31.394 52.312 33.304 53.588 32.7z" fill="#ffcc00" data-fill-palette-color="accent"></path><path d="M56.324 50.633c0.02-0.02 0.039-0.038 0.058-0.058 0.414-0.115 0.832-0.257 1.271-0.435 0.714-0.286 0.283-1.354-0.428-1.068-1.523 0.612-2.693 0.758-5.016 0.833 0 0-1.207 0.053-2.971 0.063-1.762-0.011-2.963-0.063-2.963-0.063-2.323-0.074-3.493-0.221-5.016-0.833-0.711-0.286-1.141 0.782-0.43 1.068 0.44 0.178 0.854 0.318 1.266 0.432 0.018 0.021 0.038 0.041 0.059 0.061 2.531 2.34 2.934 3.667 7.082 3.669C53.381 54.3 53.791 52.975 56.324 50.633zM45.24 52.021c-0.373-0.305-0.732-0.67-1.143-1.092 0.627 0.064 1.315 0.101 2.131 0.125 0 0 1.223 0.055 3.014 0.065 1.715-0.011 2.91-0.06 3.008-0.065 0.814-0.024 1.504-0.061 2.127-0.123-0.406 0.416-0.76 0.777-1.135 1.082-0.605 0.366-2.284 0.584-4.018 0.596C47.508 52.598 45.859 52.381 45.24 52.021z" fill="#ffcc00" data-fill-palette-color="accent"></path><path d="M94.173 89.005c-1.545-8.739-8.534-11.103-19.614-14.884 0 0-5.066-1.668-8.65-2.863 0.479 2.498 0.529 5.102 0.775 7.618 0.233 2.377 0.604 4.883 1.453 7.504 0.463 0.124 0.881 0.459 1.104 1.063 0.101 0.275 0.209 0.553 0.321 0.826 5.553-1.697 9.889 0.613 12.402 6.531 0.742 1.751 1.164 3.405 1.316 4.944h11.628C94.805 94.898 94.189 89.102 94.173 89.005z" fill="#ffcc00" data-fill-palette-color="accent"></path><path d="M70.032 89.33c0.811 1.986-2.166 3.343-3.117 1.318-3.633 2.05-5.131 5.143-4.354 9.097h19.574c-0.17-1.455-0.584-2.972-1.23-4.495C78.632 89.895 74.921 87.887 70.032 89.33z" fill="#ffcc00" data-fill-palette-color="accent"></path><path d="M66.449 89.592c-0.137-0.326-0.264-0.654-0.385-0.98-0.227-0.615-0.117-1.155 0.172-1.551-1.33-4.181-1.545-8.266-1.975-12.772-0.13-1.345-0.298-2.611-0.603-3.785-0.375-0.13-0.685-0.233-0.896-0.31-0.004-0.092-0.031-0.176-0.074-0.248l-2.498-6.935c-0.014-0.075-0.043-0.151-0.094-0.222-0.047-0.075-0.102-0.135-0.164-0.178l-0.406-0.391 0.865-3.74c0.004-0.027 0.01-0.056 0.015-0.084 1.424-1.033 2.709-2.373 3.784-4.1 1.41-2.263 2.443-5.149 2.945-8.808 2.377 0.56 4.033-1.324 6.023-5.104 0.754-1.432 2.763-7.099-0.76-8.251-1.135-0.367-2.308-0.041-3.344 0.691 0.336-2.338 1.924-3.972 1.924-6.923 0-2.593-0.092-5.105-0.367-7.501C69.443 8.225 64.906 0.491 50.281 0.14c-0.314-0.007-0.633-0.012-0.953-0.012h-0.09-0.086V0.126H49.15c-0.969 0.002-1.895 0.036-2.795 0.099C33.884 1.11 29.447 7.895 28.068 16.889c-0.421 2.75-0.56 5.72-0.566 8.804L27.5 25.901c0 2.926 1.559 4.558 1.914 6.863-0.442-0.3-0.906-0.524-1.383-0.654-2.653-0.722-4.022 1.429-3.889 4 0.131 2.506 1.537 5.161 2.996 7.172 1.293 1.781 2.594 2.585 4.223 2.222 0.584 4.254 1.879 7.471 3.666 9.869 0.889 1.191 1.893 2.172 2.979 2.969 0.002 0.044 0.006 0.092 0.018 0.139l0.863 3.74-0.443 0.428c-0.078 0.074-0.127 0.154-0.156 0.236l-0.041 0.038-2.512 7c-0.047 0.078-0.074 0.166-0.076 0.269-0.248 0.086-0.625 0.215-1.096 0.375-4.133 5.297-6.351 11.502-6.24 17.287 0.396 0.248 0.693 0.679 0.744 1.302 0.017 0.225 0.039 0.446 0.064 0.669 1.631 0.426 3.033 1.619 3.654 3.324 0.94 2.584-0.246 5.42-2.664 6.597h19.086 12.188C60.619 95.376 62.363 91.857 66.449 89.592zM35.942 54.676c-1.728-2.322-3.007-5.551-3.523-9.993-0.008-0.05-0.017-0.095-0.031-0.137-0.039-0.193-0.199-0.343-0.447-0.366-0.078-0.008-0.166-0.003-0.26 0.018-0.101 0.021-0.209 0.059-0.326 0.117-1.107 0.345-2.041 0.008-3.293-1.718-1.317-1.816-2.653-4.281-2.77-6.551-0.086-1.683 0.541-3.343 2.439-2.824 0.668 0.182 1.379 0.652 2.041 1.383 0.404 1.407 0.938 2.512 1.34 3.228 0.342 0.608 0.592 0.938 0.592 0.938 0.474 0.629 1.314 0.126 0.982-0.589-0.159-0.336-0.299-0.658-0.43-0.976-2.072-5.079-0.16-5.979 0.877-10.554 0.254-1.126 0.406-2.433 0.332-4.052-0.018-0.412-0.053-0.843-0.102-1.298-0.326-2.966 0.908-3.16 4.178-2.182 3.834 1.148 7.611 2.938 11.699 2.938 4.065 0 7.831-1.771 11.643-2.921 4.871-1.469 4.24 0.156 4.121 3.672-0.238 6.927 4.172 8.084 0.805 15.338-0.349 0.595 0.522 1.216 0.965 0.624 0.024-0.031 1.156-1.544 1.896-4.038 1.142-1.326 2.399-1.819 3.386-1.502 2.018 0.661 1.141 4.612 0.084 6.623-2.166 4.112-3.421 4.947-4.961 4.454l-0.25-0.098-0.062-0.025-0.061-0.023c-0.175-0.052-0.33-0.023-0.451 0.055-0.127 0.072-0.228 0.195-0.263 0.375l-0.01 0.061-0.009 0.068c-0.448 3.829-1.475 6.751-2.862 8.974-2.39 3.828-5.918 5.633-9.752 6.312-1.84 0.323-1.196 1.045-4.217 1.045-3.012 0-2.387-0.722-4.256-1.052C41.52 59.384 38.294 57.832 35.942 54.676zM36.96 89.986l-2.521 0.492-0.611-3.151-3.15 0.612-0.492-2.521 3.152-0.612-0.611-3.149 2.519-0.489 0.613 3.148 3.148-0.612 0.49 2.521-3.15 0.612L36.96 89.986zM44.19 97.626l-5.594-18.565c0.074 0.043 0.158 0.064 0.244 0.067 0.039 0.007 0.082 0.011 0.127 0.009 1.574-0.042 2.535-1.001 3.334-2.188 0.762-1.133 1.471-2.639 2.549-4.163l0.18-0.249 2.336 3.724L44.19 97.626zM43.908 72.124c-1.082 1.53-1.796 3.043-2.562 4.183-0.637 0.948-1.23 1.5-2.039 1.642l-2.461-7.718 2.461-6.813c1.492 3.265 4.689 4.785 8.113 5.16C45.879 69.657 44.775 70.898 43.908 72.124zM40.305 62.829c-0.217-0.489-0.287-0.822-0.287-0.822l-0.639-2.771c1.687 0.963 3.525 1.564 5.412 1.899 0.291 0.052 0.49 0.128 0.669 0.22 1.392 0.693 2.09 0.849 3.781 0.849 1.659 0 2.483-0.208 3.088-0.488 0.479-0.222 0.791-0.479 1.353-0.577 1.859-0.328 3.674-0.916 5.344-1.856l-0.627 2.707c0 0-0.084 0.329-0.32 0.821-1.629 3.403-5.219 4.715-8.871 4.715C45.596 67.525 41.832 66.318 40.305 62.829zM59.116 63.424l2.461 6.828-2.468 7.698c-0.748-0.132-1.309-0.612-1.889-1.425-1.373-1.92-2.057-3.771-3.727-5.69-0.688-0.792-1.506-1.562-2.506-2.262C54.404 68.177 57.508 66.59 59.116 63.424zM54.225 97.626l-3.176-21.365 2.33-3.714c1.066 1.495 1.83 3.143 2.904 4.646 0.771 1.08 1.711 1.912 3.184 1.943 0.122 0.014 0.247-0.009 0.352-0.07L54.225 97.626z" fill="#ffcc00" data-fill-palette-color="accent"></path><path d="M38.523 35.932c0 0.938 0.759 1.698 1.697 1.698 0.939 0 1.697-0.76 1.697-1.698 0-0.591-0.299-1.11-0.756-1.415 1.328 0.251 2.315 0.968 2.68 1.777 0.333 0.735 1.434 0.237 1.104-0.498-0.715-1.578-2.675-2.583-4.82-2.583-2.152 0-4.041 1.012-4.75 2.583-0.334 0.735 0.768 1.233 1.099 0.498 0.393-0.865 1.437-1.617 2.873-1.819C38.853 34.772 38.523 35.314 38.523 35.932z" fill="#ffcc00" data-fill-palette-color="accent"></path><path d="M40.961 47.175c-1.246-0.348-2.496 0.902-2.623 2.069-0.065 0.6 0.836 0.7 0.902 0.098 0.067-0.62 0.803-1.482 1.477-1.293C41.299 48.212 41.545 47.34 40.961 47.175z" fill="#ffcc00" data-fill-palette-color="accent"></path><path d="M44.875 32.7c1.273 0.603 2.182-1.306 0.907-1.911-2.201-1.044-4.76-1.445-7.449-0.97-1.789 0.316-3.42 0.979-4.818 1.9-1.176 0.776-0.012 2.542 1.164 1.766 1.157-0.761 2.518-1.318 4.02-1.582C40.955 31.505 43.068 31.842 44.875 32.7z" fill="#ffcc00" data-fill-palette-color="accent"></path><path d="M45.185 45.1c-0.519 0.566 0.33 1.343 0.848 0.778 0.289-0.213 0.545-0.152 0.844 0.071 0.058 0.045 0.119 0.087 0.199 0.142 0.68 0.517 1.225 1.049 2.174 1.048 0.949 0.002 1.488-0.531 2.166-1.048 0.035-0.026 0.064-0.055 0.092-0.083l0.079-0.06c0.254-0.19 0.545-0.29 0.845-0.071 0.52 0.566 1.367-0.212 0.85-0.778-0.61-0.696-1.682-0.596-2.383-0.071-0.297 0.223-0.642 0.38-1.676 0.38-1.033 0-1.357-0.155-1.656-0.38-0.674-0.504-1.5-0.602-2.18-0.104C45.253 45.021 45.185 45.1 45.185 45.1z" fill="#ffcc00" data-fill-palette-color="accent"></path></g></svg></g></svg></g></svg></g><defs></defs></svg><rect width="395.52" height="85.14464353210427" fill="none" stroke="none" visibility="hidden"></rect></g></svg></g></svg>